REM DIRINDEX 1\2,1\3,1\4,1\5,1\6
REM DIRNAME cjc030,folder01,folder02,folder03,folder04,folder05
TITLE ""
FILE "Disc3Track43.mp3" MP3
  TRACK 01 AUDIO
    TITLE "3:cjc030_05308"
    INDEX 01 00:00:00
  TRACK 02 AUDIO
    TITLE "0:"
    INDEX 01 00:01:05
  TRACK 03 AUDIO
    TITLE "4:cjc030_05309"
    INDEX 01 00:01:09
  TRACK 04 AUDIO
    TITLE "0:"
    INDEX 01 00:03:35
  TRACK 05 AUDIO
    TITLE "5:cjc030_05310"
    INDEX 01 00:03:45
  TRACK 06 AUDIO
    TITLE "0:"
    INDEX 01 00:04:52
  TRACK 07 AUDIO
    TITLE "6:cjc030_05311"
    INDEX 01 00:04:64
  TRACK 08 AUDIO
    TITLE "0:"
    INDEX 01 00:08:52
  TRACK 09 AUDIO
    TITLE "3:cjc030_05312"
    INDEX 01 00:09:24
  TRACK 10 AUDIO
    TITLE "0:"
    INDEX 01 00:10:33
  TRACK 11 AUDIO
    TITLE "4:cjc030_05313"
    INDEX 01 00:10:45
  TRACK 12 AUDIO
    TITLE "0:"
    INDEX 01 00:12:28
  TRACK 13 AUDIO
    TITLE "5:cjc030_05314"
    INDEX 01 00:12:36
  TRACK 14 AUDIO
    TITLE "0:"
    INDEX 01 00:13:51
  TRACK 15 AUDIO
    TITLE "6:cjc030_05315"
    INDEX 01 00:13:61
  TRACK 16 AUDIO
    TITLE "0:"
    INDEX 01 00:17:31
  TRACK 17 AUDIO
    TITLE "3:cjc030_05316"
    INDEX 01 00:18:03
  TRACK 18 AUDIO
    TITLE "0:"
    INDEX 01 00:19:16
  TRACK 19 AUDIO
    TITLE "4:cjc030_05317"
    INDEX 01 00:19:24
  TRACK 20 AUDIO
    TITLE "0:"
    INDEX 01 00:22:05
  TRACK 21 AUDIO
    TITLE "5:cjc030_05318"
    INDEX 01 00:22:13
  TRACK 22 AUDIO
    TITLE "0:"
    INDEX 01 00:23:24
  TRACK 23 AUDIO
    TITLE "6:cjc030_05319"
    INDEX 01 00:23:38
  TRACK 24 AUDIO
    TITLE "0:"
    INDEX 01 00:28:66
  TRACK 25 AUDIO
    TITLE "3:cjc030_05320"
    INDEX 01 00:29:42
  TRACK 26 AUDIO
    TITLE "0:"
    INDEX 01 00:30:61
  TRACK 27 AUDIO
    TITLE "4:cjc030_05321"
    INDEX 01 00:30:69
  TRACK 28 AUDIO
    TITLE "0:"
    INDEX 01 00:32:45
  TRACK 29 AUDIO
    TITLE "5:cjc030_05322"
    INDEX 01 00:32:54
  TRACK 30 AUDIO
    TITLE "0:"
    INDEX 01 00:33:69
  TRACK 31 AUDIO
    TITLE "6:cjc030_05323"
    INDEX 01 00:34:10
  TRACK 32 AUDIO
    TITLE "0:"
    INDEX 01 00:37:57
  TRACK 33 AUDIO
    TITLE "3:cjc030_05324"
    INDEX 01 00:38:30
  TRACK 34 AUDIO
    TITLE "0:"
    INDEX 01 00:39:47
  TRACK 35 AUDIO
    TITLE "4:cjc030_05325"
    INDEX 01 00:39:54
  TRACK 36 AUDIO
    TITLE "0:"
    INDEX 01 00:41:22
  TRACK 37 AUDIO
    TITLE "5:cjc030_05326"
    INDEX 01 00:41:34
  TRACK 38 AUDIO
    TITLE "0:"
    INDEX 01 00:42:49
  TRACK 39 AUDIO
    TITLE "6:cjc030_05327"
    INDEX 01 00:42:61
  TRACK 40 AUDIO
    TITLE "0:"
    INDEX 01 00:44:40
  TRACK 41 AUDIO
    TITLE "3:cjc030_05328"
    INDEX 01 00:45:14
  TRACK 42 AUDIO
    TITLE "0:"
    INDEX 01 00:46:27
  TRACK 43 AUDIO
    TITLE "4:cjc030_05329"
    INDEX 01 00:46:33
  TRACK 44 AUDIO
    TITLE "0:"
    INDEX 01 00:48:46
  TRACK 45 AUDIO
    TITLE "5:cjc030_05330"
    INDEX 01 00:48:51
  TRACK 46 AUDIO
    TITLE "0:"
    INDEX 01 00:49:67
  TRACK 47 AUDIO
    TITLE "6:cjc030_05331"
    INDEX 01 00:50:05
  TRACK 48 AUDIO
    TITLE "0:"
    INDEX 01 00:52:10
  TRACK 49 AUDIO
    TITLE "3:cjc030_05332"
    INDEX 01 00:52:59
  TRACK 50 AUDIO
    TITLE "0:"
    INDEX 01 00:54:01
  TRACK 51 AUDIO
    TITLE "4:cjc030_05333"
    INDEX 01 00:54:09
  TRACK 52 AUDIO
    TITLE "0:"
    INDEX 01 00:55:53
  TRACK 53 AUDIO
    TITLE "5:cjc030_05334"
    INDEX 01 00:55:61
  TRACK 54 AUDIO
    TITLE "0:"
    INDEX 01 00:57:03
  TRACK 55 AUDIO
    TITLE "3:cjc030_05335"
    INDEX 01 00:57:54
  TRACK 56 AUDIO
    TITLE "0:"
    INDEX 01 00:59:04
  TRACK 57 AUDIO
    TITLE "4:cjc030_05336"
    INDEX 01 00:59:12
  TRACK 58 AUDIO
    TITLE "0:"
    INDEX 01 01:00:04
  TRACK 59 AUDIO
    TITLE "5:cjc030_05337"
    INDEX 01 01:00:10
  TRACK 60 AUDIO
    TITLE "0:"
    INDEX 01 01:01:36
  TRACK 61 AUDIO
    TITLE "3:cjc030_05338"
    INDEX 01 01:02:16
  TRACK 62 AUDIO
    TITLE "0:"
    INDEX 01 01:03:33
  TRACK 63 AUDIO
    TITLE "4:cjc030_05339"
    INDEX 01 01:03:43
  TRACK 64 AUDIO
    TITLE "0:"
    INDEX 01 01:04:31
  TRACK 65 AUDIO
    TITLE "5:cjc030_05340"
    INDEX 01 01:04:39
  TRACK 66 AUDIO
    TITLE "0:"
    INDEX 01 01:05:54
  TRACK 67 AUDIO
    TITLE "6:cjc030_05341"
    INDEX 01 01:05:69
  TRACK 68 AUDIO
    TITLE "0:"
    INDEX 01 01:09:07
  TRACK 69 AUDIO
    TITLE "3:cjc030_05342"
    INDEX 01 01:09:54
  TRACK 70 AUDIO
    TITLE "0:"
    INDEX 01 01:11:02
  TRACK 71 AUDIO
    TITLE "4:cjc030_05343"
    INDEX 01 01:11:09
  TRACK 72 AUDIO
    TITLE "0:"
    INDEX 01 01:14:04
  TRACK 73 AUDIO
    TITLE "5:cjc030_05344"
    INDEX 01 01:14:12
  TRACK 74 AUDIO
    TITLE "0:"
    INDEX 01 01:15:33
  TRACK 75 AUDIO
    TITLE "6:cjc030_05345"
    INDEX 01 01:15:46
  TRACK 76 AUDIO
    TITLE "0:"
    INDEX 01 01:18:70
  TRACK 77 AUDIO
    TITLE "3:cjc030_05346"
    INDEX 01 01:19:44
  TRACK 78 AUDIO
    TITLE "0:"
    INDEX 01 01:21:02
  TRACK 79 AUDIO
    TITLE "4:cjc030_05347"
    INDEX 01 01:21:12
  TRACK 80 AUDIO
    TITLE "0:"
    INDEX 01 01:22:72
  TRACK 81 AUDIO
    TITLE "5:cjc030_05348"
    INDEX 01 01:23:09
  TRACK 82 AUDIO
    TITLE "0:"
    INDEX 01 01:24:39
  TRACK 83 AUDIO
    TITLE "6:cjc030_05349"
    INDEX 01 01:24:53
  TRACK 84 AUDIO
    TITLE "0:"
    INDEX 01 01:29:03
  TRACK 85 AUDIO
    TITLE "3:cjc030_05350"
    INDEX 01 01:29:52
  TRACK 86 AUDIO
    TITLE "0:"
    INDEX 01 01:30:69
  TRACK 87 AUDIO
    TITLE "4:cjc030_05351"
    INDEX 01 01:31:04
  TRACK 88 AUDIO
    TITLE "0:"
    INDEX 01 01:34:12
  TRACK 89 AUDIO
    TITLE "5:cjc030_05352"
    INDEX 01 01:34:22
  TRACK 90 AUDIO
    TITLE "0:"
    INDEX 01 01:35:39
  TRACK 91 AUDIO
    TITLE "6:cjc030_05353"
    INDEX 01 01:35:51
  TRACK 92 AUDIO
    TITLE "0:"
    INDEX 01 01:39:00
